<?xml version="1.0" standalone="no"?><!DOCTYPE svg PUBLIC "-//W3C//DTD SVG 1.1//EN" "http://www.w3.org/Graphics/SVG/1.1/DTD/svg11.dtd"><svg t="1672927559327" class="icon" viewBox="0 0 1024 1024" version="1.1" xmlns="http://www.w3.org/2000/svg" p-id="2897" xmlns:xlink="http://www.w3.org/1999/xlink" width="200" height="200"><path d="M422.5792 544.426667c5.3248 0 10.5856-0.277333 15.799467-0.712534a187.217067 187.217067 0 0 0 33.028266-5.742933c0.810667-0.2176 1.6128-0.4608 2.423467-0.686933a186.338133 186.338133 0 0 0 10.845867-3.4176 177.233067 177.233067 0 0 0 6.404266-2.389334c1.211733-0.4736 2.432-0.930133 3.630934-1.429333 2.056533-0.853333 4.078933-1.7792 6.101333-2.705067 2.517333-1.156267 5.0048-2.368 7.458133-3.630933 1.365333-0.699733 2.743467-1.3824 4.091734-2.112 1.9072-1.041067 3.776-2.141867 5.640533-3.242667 0.913067-0.5376 1.826133-1.070933 2.730667-1.621333 0.832-0.512 1.642667-1.058133 2.466133-1.582933l-0.128-0.0384C575.389867 481.796267 610.133333 423.317333 610.133333 356.689067c0-93.175467-67.8912-170.453333-156.893866-185.169067-0.981333-0.162133-1.954133-0.3456-2.939734-0.490667-2.0736-0.3072-4.164267-0.554667-6.2592-0.7936a181.917867 181.917867 0 0 0-5.333333-0.529066 173.1968 173.1968 0 0 0-14.779733-0.708267c-0.452267-0.004267-0.896-0.034133-1.348267-0.034133-3.029333 0.004267-6.0416 0.085333-9.041067 0.2304-1.250133 0.064-2.491733 0.174933-3.7376 0.260266-97.629867 6.656-174.779733 87.9104-174.779733 187.234134 0 98.504533 75.8784 179.229867 172.3648 187.054933l-0.123733 0.008533a189.482667 189.482667 0 0 0 15.317333 0.674134zM277.687467 356.689067c0-80.119467 64.9472-145.066667 145.066666-145.066667s145.066667 64.9472 145.066667 145.066667-64.9472 145.066667-145.066667 145.066666-145.066667-64.9472-145.066666-145.066666z" fill="#666666" p-id="2898"></path><path d="M423.927467 128.0384h-0.008534c-0.448-0.004267-0.891733-0.034133-1.339733-0.034133 0.452267 0 0.896 0.029867 1.348267 0.034133zM633.821867 575.688533c-0.4352-0.3456-0.874667-0.682667-1.314134-1.024a341.956267 341.956267 0 0 0-28.7488-20.155733c-1.297067-0.814933-2.577067-1.646933-3.886933-2.440533a340.0192 340.0192 0 0 0-66.973867-31.3856 339.541333 339.541333 0 0 0-94.779733-17.890134l0.251733-0.029866a189.5936 189.5936 0 0 1-15.799466 0.712533c-5.162667 0-10.257067-0.264533-15.313067-0.674133-181.316267 8.106667-325.841067 157.6192-325.841067 340.936533 0 0.3584 0.0256 0.708267 0.0256 1.066667h-0.0256v42.666666H760.917333a344.064 344.064 0 0 0 2.811734-43.8912c0.004267-108.654933-50.786133-205.4016-129.9072-267.8912zM721.3952 844.8H124.117333c0-0.3584-0.0256-0.708267-0.0256-1.066667 0-164.949333 133.717333-298.666667 298.666667-298.666666s298.666667 133.717333 298.666667 298.666666c-0.004267 0.3584-0.029867 0.708267-0.029867 1.066667z" fill="#666666" p-id="2899"></path><path d="M636.253867 501.508267a274.922667 274.922667 0 0 0-30.583467 4.603733 384.128 384.128 0 0 1 52.928 34.7392c0.913067-0.0128 1.821867-0.0512 2.734933-0.0512 128.068267 0 231.927467 103.534933 232.507734 231.466667h-94.071467a384.2816 384.2816 0 0 1 5.563733 42.666666H934.4v-42.666666h-0.0256c-0.546133-142.0672-109.576533-258.487467-248.5504-270.852267-8.110933 1.322667-16.426667 2.043733-24.913067 2.043733" fill="#666666" p-id="2900"></path><path d="M660.8 498.2656a110.208 110.208 0 0 1-50.350933-12.1216 235.8528 235.8528 0 0 1-13.0176 16.6912 384.4352 384.4352 0 0 1 59.771733 37.994667c1.233067 0.029867 2.4576 0.093867 3.694933 0.093866 8.494933 0.004267 16.810667-0.712533 24.9216-2.039466l-0.0256-0.004267c72.942933-11.938133 128.6144-75.2256 128.6144-151.547733 0-84.829867-68.770133-153.6-153.6-153.6-3.136 0-6.2464 0.1152-9.335466 0.3072-0.558933 0.034133-1.117867 0.0896-1.6768 0.128-2.7264 0.200533-5.435733 0.456533-8.119467 0.797866l-0.913067 0.1152a155.191467 155.191467 0 0 0-18.474666 3.6096 229.201067 229.201067 0 0 1 18.0096 39.684267 110.775467 110.775467 0 0 1 20.501333-1.975467c61.265067 0 110.933333 49.668267 110.933333 110.933334s-49.668267 110.933333-110.933333 110.933333z" fill="#666666" p-id="2901"></path></svg>